<svg width="48" height="48" viewBox="0 0 48 48" fill="none" xmlns="http://www.w3.org/2000/svg">
<mask id="mask0_32_122" style="mask-type:alpha" maskUnits="userSpaceOnUse" x="0" y="0" width="48" height="48">
<rect width="48" height="48" rx="2" fill="#D9D9D9"/>
</mask>
<g mask="url(#mask0_32_122)">
<path d="M15.5713 37.4441C14.7909 38.2214 13.5289 38.2214 12.7485 37.4441L12.2694 36.9669C11.4846 36.1852 11.4846 34.9146 12.2694 34.1329L21.0202 25.4169C21.805 24.6352 21.805 23.3646 21.0202 22.5829L12.2694 13.8669C11.4846 13.0852 11.4846 11.8146 12.2694 11.0329L12.7485 10.5557C13.5289 9.77838 14.7909 9.77838 15.5713 10.5557L24.3447 19.2941C25.1251 20.0714 26.3871 20.0714 27.1675 19.2941L35.9409 10.5557C36.7213 9.77838 37.9833 9.77838 38.7637 10.5557L39.2428 11.0329C40.0276 11.8146 40.0276 13.0852 39.2428 13.8669L30.492 22.5829C29.7072 23.3646 29.7072 24.6352 30.492 25.4169L39.2428 34.1329C40.0276 34.9146 40.0276 36.1852 39.2428 36.9669L38.7637 37.4441C37.9833 38.2214 36.7213 38.2214 35.9409 37.4441L27.1675 28.7057C26.3871 27.9284 25.1251 27.9284 24.3447 28.7057L15.5713 37.4441Z" fill="#1C1B1F"/>
</g>
</svg>
