<svg width="41" height="41" viewBox="0 0 41 41" fill="none" xmlns="http://www.w3.org/2000/svg">
<mask id="mask0_151_19" style="mask-type:alpha" maskUnits="userSpaceOnUse" x="0" y="0" width="41" height="41">
<rect x="0.449951" y="0.843994" width="40" height="40" rx="20" fill="#D9D9D9"/>
</mask>
<g mask="url(#mask0_151_19)">
<path d="M6.44999 32.594C5.2227 32.594 4.22778 31.599 4.22778 30.3717V30.3717C4.22778 29.1445 5.2227 28.1495 6.44999 28.1495H34.4778C35.7051 28.1495 36.7 29.1445 36.7 30.3717V30.3717C36.7 31.599 35.7051 32.594 34.4778 32.594H6.44999ZM6.4361 23.0662C5.21648 23.0662 4.22778 22.0775 4.22778 20.8578V20.8578C4.22778 19.6382 5.21648 18.6495 6.4361 18.6495H34.4917C35.7113 18.6495 36.7 19.6382 36.7 20.8578V20.8578C36.7 22.0775 35.7113 23.0662 34.4917 23.0662H6.4361ZM6.44999 13.5245C5.2227 13.5245 4.22778 12.5296 4.22778 11.3023V11.3023C4.22778 10.075 5.2227 9.08008 6.44999 9.08008H34.4778C35.7051 9.08008 36.7 10.075 36.7 11.3023V11.3023C36.7 12.5296 35.7051 13.5245 34.4778 13.5245H6.44999Z" fill="#491F00"/>
</g>
</svg>
